HIERARCHY
ROOT Hips
{
  OFFSET -125.086 92.215 135.881
  CHANNELS 6 Xposition Yposition Zposition Zrotation Xrotation Yrotation
  JOINT LeftUpLeg
  {
    OFFSET 8.64259 1.95398 -2.38835
    CHANNELS 3 Zrotation Xrotation Yrotation
    JOINT LeftLeg
    {
      OFFSET 43.7702 0 0
      CHANNELS 3 Zrotation Xrotation Yrotation
      JOINT LeftFoot
      {
        OFFSET 40.6238 0 0
        CHANNELS 3 Zrotation Xrotation Yrotation
        JOINT LeftToeBase
        {
          OFFSET 12.7242 0 0
          CHANNELS 3 Zrotation Xrotation Yrotation
          End Site
          {
            OFFSET 0 0 0
          }
        }
      }
    }
  }
  JOINT RightUpLeg
  {
    OFFSET -8.2249 1.95398 -2.59336
    CHANNELS 3 Zrotation Xrotation Yrotation
    JOINT RightLeg
    {
      OFFSET 43.5653 0 0
      CHANNELS 3 Zrotation Xrotation Yrotation
      JOINT RightFoot
      {
        OFFSET 40.6238 0 0
        CHANNELS 3 Zrotation Xrotation Yrotation
        JOINT RightToeBase
        {
          OFFSET 12.7242 0 0
          CHANNELS 3 Zrotation Xrotation Yrotation
          End Site
          {
            OFFSET 0 0 0
          }
        }
      }
    }
  }
  JOINT Spine
  {
    OFFSET 0.165834 0.87714 6.61349
    CHANNELS 3 Zrotation Xrotation Yrotation
    JOINT Spine1
    {
      OFFSET 7.38963 1.71661e-005 0
      CHANNELS 3 Zrotation Xrotation Yrotation
      JOINT Spine2
      {
        OFFSET 11.9445 1.14441e-005 0
        CHANNELS 3 Zrotation Xrotation Yrotation
        JOINT Spine3
        {
          OFFSET 14.7254 4.19617e-005 0
          CHANNELS 3 Zrotation Xrotation Yrotation
          JOINT Spine4
          {
            OFFSET 10.9679 0 0
            CHANNELS 3 Zrotation Xrotation Yrotation
            JOINT RightShoulder
            {
              OFFSET 2.46616 -1.6653 3.69651
              CHANNELS 3 Zrotation Xrotation Yrotation
              JOINT RightArm
              {
                OFFSET 13.0012 0 0
                CHANNELS 3 Zrotation Xrotation Yrotation
                JOINT RightForeArm
                {
                  OFFSET 28.7848 1.52588e-005 0
                  CHANNELS 3 Zrotation Xrotation Yrotation
                  JOINT RightHand
                  {
                    OFFSET 26.5688 1.52588e-005 0
                    CHANNELS 3 Zrotation Xrotation Yrotation
                    End Site
                    {
                      OFFSET 0 0 0
                    }
                  }
                }
              }
            }
            JOINT LeftShoulder
            {
              OFFSET 2.38034 -1.29275 -3.7523
              CHANNELS 3 Zrotation Xrotation Yrotation
              JOINT LeftArm
              {
                OFFSET 16.3182 6.10352e-005 0
                CHANNELS 3 Zrotation Xrotation Yrotation
                JOINT LeftForeArm
                {
                  OFFSET 27.0901 0 0
                  CHANNELS 3 Zrotation Xrotation Yrotation
                  JOINT LeftHand
                  {
                    OFFSET 24.5451 1.52588e-005 0
                    CHANNELS 3 Zrotation Xrotation Yrotation
                    End Site
                    {
                      OFFSET 0 0 0
                    }
                  }
                }
              }
            }
            JOINT Neck
            {
              OFFSET 5.0226 -0.0266342 0
              CHANNELS 3 Zrotation Xrotation Yrotation
              JOINT Head
              {
                OFFSET 6.69363 2.86102e-005 0
                CHANNELS 3 Zrotation Xrotation Yrotation
                End Site
                {
                  OFFSET 0 0 0
                }
              }
            }
          }
        }
      }
    }
  }
}
MOTION
Frames:	6
Frame Time:	0.0416667
-278.96 93.0501 261.845 83.462 59.9709 96.1553 174.687 7.95367 85.0957 -11.8853 23.419 8.72135 58.2085 4.21985 5.13537 37.5367 -0.937161 4.88583 173.811 9.7012 88.0008 -19.2022 -0.379208 1.70547 54.4914 6.18439 0.969779 53.5489 -4.35549 -4.0146 -2.63829 5.81543 -89.9552 15.2815 -5.19378 0.881823 3.6205 -5.14993 1.11014 -18.9976 -5.21804 -0.724262 1.01506 -5.21804 -0.724266 120.334 -61.1364 -57.5253 22.5856 -0.00302382 -11.655 1.72257 -33.3112 -10.476 -7.3041 -0.387618 1.07017 -69.2917 -46.7759 110.349 -43.9627 -11.3211 -20.5609 7.20954 78.6109 -5.31334 9.84573 -0.342178 -6.72068 -2.50581 -8.99489 3.09412 -27.2982 -6.85942 -12.0574 
-279.167 93.087 261.319 85.4445 59.1529 96.2479 175.321 7.83713 86.1307 -14.8706 23.0168 9.46142 60.1481 5.21201 6.56116 36.3017 -0.807378 3.29299 173.708 7.4604 89.195 -17.1452 -0.933979 2.25314 53.8131 5.78706 0.997277 53.6551 -4.37236 -3.98511 -2.52236 5.96692 -90.1273 14.9682 -5.05363 0.49219 3.30691 -5.02704 0.714682 -19.3053 -4.96727 -1.05326 0.7073 -4.9673 -1.05327 120.449 -61.1392 -57.3728 22.6362 0.0469781 -11.6017 1.71787 -33.1961 -10.4375 -7.70397 -0.364751 0.337204 -69.3779 -46.817 110.207 -43.7119 -10.5482 -20.3639 1.31575 75.9115 0.313575 14.9886 -0.347468 -6.0382 -2.10889 -8.75707 3.10109 -27.3889 -6.58564 -12.2062 
-279.098 93.0591 261.937 83.4429 59.7757 96.3394 174.757 8.19916 85.1794 -12.2775 23.5907 8.72534 58.5463 4.5958 6.41484 36.5673 -0.820028 3.26747 173.824 9.55185 88.2322 -18.6991 -0.722672 1.77618 54.797 5.58868 -0.177431 53.378 -4.29129 -3.76241 -2.60732 5.83246 -89.9771 15.2454 -5.14395 0.828196 3.58422 -5.10252 1.05436 -19.0321 -5.15441 -0.760297 0.980524 -5.15441 -0.760302 120.385 -61.0684 -57.4391 22.69 0.179677 -11.5105 1.48657 -33.1467 -10.6338 -7.42141 -0.313491 -0.269372 -69.2873 -47.0673 110.309 -43.6713 -10.6068 -20.5535 1.7331 76.705 0.0119853 14.6542 -0.44494 -6.71885 -1.08206 -7.89079 2.96514 -27.1619 -5.84085 -11.728 
-279.233 93.0735 261.987 83.8124 59.3639 96.4876 174.962 8.42195 85.5492 -13.045 23.3883 8.8104 58.834 4.71624 6.51077 36.6525 -0.833244 3.43797 173.793 8.8801 88.708 -17.4961 -1.45104 1.9899 54.74 4.96144 -1.68926 53.1284 -4.20745 -3.46459 -2.54374 5.86962 -90.04 15.1669 -5.05055 0.6816 3.50549 -5.01564 0.903771 -19.1075 -5.02129 -0.871763 0.905174 -5.0213 -0.871765 120.202 -60.8719 -57.6304 22.8023 0.312245 -11.6991 1.49292 -33.682 -10.6786 -7.20131 -0.352481 0.554932 -69.3236 -47.1382 110.241 -44.0422 -10.9977 -20.82 2.20477 78.4293 0.015651 12.4577 -0.613413 -8.42946 0.108819 -6.09034 2.79354 -26.8185 -4.20918 -11.0414 
-279.432 93.069 262.076 84.2492 59.1402 96.5063 175.028 8.71498 85.832 -13.8861 23.2332 8.92962 58.6952 4.45392 5.84602 37.6096 -0.931188 4.64773 173.446 8.00814 88.963 -15.9193 -2.72912 2.52898 54.7334 4.17125 -3.99475 52.6739 -4.07905 -3.09748 -2.50439 5.93264 -90.1146 15.0366 -5.01097 0.516967 3.37512 -4.98336 0.737548 -19.2359 -4.93408 -1.01674 0.776712 -4.93409 -1.01674 119.659 -60.4774 -58.254 23.2598 0.490637 -11.8794 1.30703 -33.1503 -10.6093 -6.87484 -0.278193 -0.504975 -69.1978 -47.5991 110.364 -43.9266 -11.0008 -21.1677 2.23759 78.6841 0.0184489 10.4983 -0.606632 -8.9432 2.03818 -4.11564 2.37173 -26.1231 -2.56566 -9.58608 
-279.604 93.1653 262.206 84.7048 58.6644 96.3613 175.192 8.38172 86.044 -13.4403 23.1613 8.85134 58.6567 4.65847 6.59002 36.6879 -0.842564 3.64538 172.933 7.18515 89.1046 -14.4031 -3.99934 3.15573 55.1213 2.7042 -6.30291 51.0197 -3.71118 -2.48841 -2.41563 6.00089 -90.1549 14.8961 -4.85664 0.403618 3.23408 -4.83416 0.617477 -19.3719 -4.7529 -1.07808 0.640758 -4.7529 -1.07807 119.742 -60.4562 -58.136 23.0467 0.218528 -12.2733 1.55385 -33.1367 -10.5837 -7.18968 -0.323617 0.0683331 -69.4581 -47.6958 109.945 -43.9565 -10.6663 -21.3896 2.09828 77.988 0.0200044 8.59542 -0.472557 -8.36009 3.12034 -2.02567 0.925833 -23.9633 -0.919338 -6.95518 
